<svg xmlns="http://www.w3.org/2000/svg" viewBox="0 0 24 24" fill="currentColor">
  <path d="M17.472 14.382c-.297-.149-1.758-.867-2.032-.967-.273-.099-.472-.149-.671.15-.198.297-.767.966-.94 1.164-.173.198-.347.223-.643.074-.297-.149-1.255-.463-2.39-1.475-.883-.788-1.48-1.761-1.653-2.059-.173-.297-.018-.458.13-.606.134-.133.298-.347.447-.52.149-.173.198-.297.298-.497.099-.198.05-.372-.025-.521-.075-.148-.671-1.611-.921-2.204-.242-.579-.487-.502-.671-.512l-.57-.01c-.198 0-.52.074-.793.372s-1.04 1.016-1.04 2.479 1.065 2.876 1.213 3.074c.149.198 2.1 3.2 5.077 4.487.709.306 1.262.489 1.694.626.712.227 1.36.195 1.872.118.571-.085 1.758-.719 2.006-1.415.248-.696.248-1.292.173-1.416-.074-.124-.272-.198-.57-.347m-5.421 5.539h-.001a8.768 8.768 0 01-4.777-1.398l-.342-.203-3.561.934.949-3.463-.224-.356A8.744 8.744 0 013.292 9.5c0-4.82 3.919-8.739 8.743-8.739 2.337 0 4.533.91 6.18 2.558a8.673 8.673 0 012.557 6.18c-.003 4.822-3.923 8.742-8.745 8.742m6.128-14.87A10.902 10.902 0 0012.038.43C5.44.43 0 5.87 0 12.463c0 2.19.57 4.326 1.654 6.19L0 24l5.463-1.641a11.994 11.994 0 006.57 1.927h.005c6.596 0 12.038-5.44 12.041-12.042.003-3.21-1.246-6.223-3.522-8.499z"/>
</svg>
